#!OML:ASF F:\VICON\USERDATA\INSTALL\rory3\rory3.ASF
:FULLY-SPECIFIED
:DEGREES
127
root 1.3280385353974518 17.920415381240325 45.752944762408774 -3.0774715888074353 -0.7958866593713181 -2.2355542019348884
lfemur 5.745314944950923 -2.606627959714643 -19.568921689380296
ltibia 50.83044417282034
lfoot -14.493166644946903 -1.8598346236382415
ltoes -20.256255278616845
rfemur -15.396459267333338 2.4997528624848937 26.609017779320602
rtibia 18.355963621110657
rfoot -0.9775274958013789 -7.003229282848273
rtoes 6.5708238044402725
lowerback 10.223403635863823 -1.571693066455566 0.19230200094085614
upperback -0.19484862001579395 -1.9748136194479649 2.4933062650804865
thorax -5.967569278836571 -1.017501775710755 3.6897617969613696
lowerneck -16.79743526657539 -3.27954468696185 -1.7426633633261772
upperneck 21.687886064110703 -4.339376741224697 0.7356211410846444
head 9.699183551593642 -2.066795746730014 -0.02561961206089261
lclavicle -2.7003079518494346e-15 -2.1517147062700404e-15
lhumerus -31.176244018003253 4.183663135350687 81.85762124539323
lradius 24.173037002629307
lwrist 11.121591291112939
lhand -29.685504997484223 19.97200026994621
lfingers 7.125020000000001
lthumb -3.025790794347267 50.07792167092171
rclavicle -2.7003079517704057e-15 -2.1517147062157316e-15
rhumerus -29.265512196020392 -18.479992775896637 -76.07700088441317
rradius 26.484799857219457
rwrist 4.251262944042172
rhand -17.913691830401532 22.517834708226133
rfingers 7.125020000000001
rthumb 8.538376608826182 -7.011795533025577
128
root 1.3560174214348053 17.93764992059323 46.74545081177325 -3.123151585472351 -0.5815508586471962 -2.1589135548002463
lfemur 5.0473191434650975 -2.5835665619737296 -19.43919328056901
ltibia 51.89722592274505
lfoot -14.184855962451493 -2.4050806223694603
ltoes -16.327124643463833
rfemur -14.566781965592677 2.3865510976380397 26.591059658965147
rtibia 18.368901117781782
rfoot -1.338161701532206 -6.817607207755955
rtoes 6.651642448182872
lowerback 10.164290953629388 -1.5248464651022298 0.3512298183827307
upperback -0.24707075343384036 -1.8500938696035807 2.50221392356039
thorax -5.972315451088242 -0.950730110784803 3.599971391229663
lowerneck -16.747245316492602 -3.291509290355127 -1.7289619402785659
upperneck 21.71086994020811 -4.373350085729671 0.6910346648139447
head 9.699687981375392 -2.080611685566259 -0.04856941752221991
lclavicle -2.700307951846054e-15 -2.1517147062679227e-15
lhumerus -31.30136977793031 4.053676941840666 81.68462694269634
lradius 24.32137174399109
lwrist 11.513699626976699
lhand -29.59570635804208 19.7303191586066
lfingers 7.125020000000001
lthumb -2.926892882448747 49.93583916040861
rclavicle -2.700307951758714e-15 -2.1517147062079286e-15
rhumerus -29.686755961996237 -18.57385812046148 -75.86734828332452
rradius 26.49730846295721
rwrist 3.700038809127292
rhand -17.957426431795373 22.593669485448423
rfingers 7.125020000000001
rthumb 8.515194833839935 -6.747746154883389
129
root 1.3746754529127951 17.961182355615957 46.835667682567305 -3.033181104033291 -0.35006333088170627 -2.400785853856609
lfemur 4.807660108631579 -2.652790754128859 -19.215529098057377
ltibia 52.70275190043205
lfoot -13.817936898517907 -2.73481282289689
ltoes -15.991028037710059
rfemur -13.723703995730672 2.318462961042104 26.829087597002886
rtibia 18.183434776203885
rfoot -1.493481983232205 -6.72836285447466
rtoes 6.013178424211532
lowerback 10.126635854138035 -1.4426031818908924 0.7488575701756229
upperback -0.31395175509366247 -1.665213874370777 2.5373308144157045
thorax -6.029045552581288 -0.8855124181076042 3.3864661933266316
lowerneck -16.6248393892292 -3.2967581507167782 -1.7143422735720542
upperneck 21.737193312513075 -4.381213791882506 0.6410571250244325
head 9.669446635001465 -2.0901342551825177 -0.058303133744791596
lclavicle -2.7003079518476525e-15 -2.151714706269208e-15
lhumerus -31.151022803926228 4.095946955862398 81.6595907195868
lradius 24.484706117371005
lwrist 11.430195313718105
lhand -29.574107661686956 20.026151041854327
lfingers 7.125020000000001
lthumb -2.7522264829232914 50.528594899738486
rclavicle -2.7003079517488627e-15 -2.151714706201306e-15
rhumerus -29.875701846064533 -18.57629232178024 -75.85867323018691
rradius 26.48696309624186
rwrist 3.819149804784626
rhand -17.945976410414637 22.77662342855904
rfingers 7.125020000000001
rthumb 8.422058926892362 -6.4296138940755885
130
root 1.3954969582072163 17.97634067031144 46.75154021838165 -3.054951745050695 -0.18278140450954156 -2.6070695253787752
lfemur 4.247613875122809 -2.701116927756762 -19.01426943615158
ltibia 53.411009295919314
lfoot -13.621693482571793 -3.046583898849107
ltoes -18.476054511782365
rfemur -12.858435481609368 2.3287619937127557 27.0397394965075
rtibia 18.008874443928303
rfoot -1.647939785501447 -6.808833353547181
rtoes 4.861339257071471
lowerback 10.105668798969015 -1.3472667812587258 1.0547068941685434
upperback -0.35119917713934684 -1.486121919887362 2.539013371976818
thorax -6.0179715065630806 -0.7924960377907841 3.2320876142006454
lowerneck -16.596955146680124 -3.312001741031035 -1.6934112315384557
upperneck 21.854709205043434 -4.408894119613682 0.5594829987682889
head 9.731696465898718 -2.100779244297614 -0.10350298079218487
lclavicle -2.7003079518525395e-15 -2.1517147062727683e-15
lhumerus -31.077551619306107 4.026628600362931 81.55241532209625
lradius 24.603559759649983
lwrist 11.630296377277352
lhand -29.57669790676913 20.031879800171737
lfingers 7.125020000000001
lthumb -2.7531894894772844 50.40265016194752
rclavicle -2.7003079517572684e-15 -2.151714706207357e-15
rhumerus -29.98260579470294 -18.55577510054655 -75.98221539743386
rradius 26.407675259587165
rwrist 4.151330123918508
rhand -18.052639889987095 22.710080558443746
rfingers 7.125020000000001
rthumb 8.278179546839246 -6.296519013216367
131
root 1.3969725570341371 17.976677224655017 46.90821980363931 -3.1787133394765297 -0.17253595377233494 -2.4660910001798317
lfemur 4.12464625939452 -2.7498852286172473 -19.194056607318462
ltibia 53.78212095405857
lfoot -13.490379097230287 -3.3105393763441775
ltoes -16.71928099196157
rfemur -12.249749960195704 2.3610700090856045 26.96563039896647
rtibia 18.329157896977982
rfoot -1.6415185857287486 -6.976220818766853
rtoes 3.9318016602658243
lowerback 10.046957060878796 -1.205230513287339 1.0525568104370329
upperback -0.31566827275440645 -1.3122356131175874 2.4998839630778624
thorax -5.9940242942341415 -0.7132923796290026 3.124696688512907
lowerneck -16.58560593870128 -3.3264588385315617 -1.6716510437569712
upperneck 21.9097092901259 -4.449402567444072 0.56187455668109
head 9.755264909586407 -2.116758514110802 -0.11393157907265103
lclavicle -2.700307951837877e-15 -2.1517147062630298e-15
lhumerus -30.830194549777236 3.994005504713966 81.53921665735093
lradius 24.7786853984486
lwrist 11.47329564337388
lhand -29.699446459038477 19.893221217566367
lfingers 7.125020000000001
lthumb -2.9192536797877544 50.21671994397005
rclavicle -2.7003079517595703e-15 -2.1517147062090957e-15
rhumerus -30.211449023365493 -18.5181009830628 -76.05983094565994
rradius 26.35941719387844
rwrist 4.211595154833792
rhand -18.033978067533077 22.843407591474776
rfingers 7.125020000000001
rthumb 8.164280968776367 -6.098117004605598
